# xmcd
#
# Track frame offsets:
#	150
#	2920
#	19645
#	43495
#	65175
#	93545
#	126565
#	148820
#	176320
#	195145
#	209035
#
# Disc length: 3117 seconds
#
# Revision: 0
# Processed by: cddbd v1.5.1PL2 Copyright (c) Steve Scherf et al.
# Submitted via: EasyCDDAExtractor 8.0.2.1
#
DISCID=a70c2b0b
DTITLE=Ozzy Osbourne - Johanneshovs Isstadion Stockholm 24-11-95 Disc 1
DYEAR=1995
DGENRE=Hard Rock
TTITLE0=Intro
TTITLE1=Paranoid
TTITLE2=I Don't Know
TTITLE3=Flying High Again
TTITLE4=Goodbye To Romance
TTITLE5=No More Tears
TTITLE6=I Don't Want To Change The World
TTITLE7=Suicide Solution
TTITLE8=Iron Man
TTITLE9=Sweet Leaf
TTITLE10=Children Of The Grave
EXTD=
EXTT0=
EXTT1=
EXTT2=
EXTT3=
EXTT4=
EXTT5=
EXTT6=
EXTT7=
EXTT8=
EXTT9=
EXTT10=
PLAYORDER=
